<mxfile host="Electron" agent="Mozilla/5.0 (Windows NT 10.0; Win64; x64) AppleWebKit/537.36 (KHTML, like Gecko) draw.io/26.1.1 Chrome/132.0.6834.210 Electron/34.3.3 Safari/537.36" version="26.1.1">
  <diagram name="Page-1" id="yvnHG3h8Ii7Y1QUl52yJ">
    <mxGraphModel dx="866" dy="827" grid="1" gridSize="10" guides="1" tooltips="1" connect="1" arrows="1" fold="1" page="1" pageScale="1" pageWidth="850" pageHeight="1100" background="#99FFCC" math="0" shadow="0">
      <root>
        <mxCell id="0" />
        <mxCell id="1" parent="0" />
        <mxCell id="iyl_RyE-g6Nbr4z0nLbD-3" value="" style="edgeStyle=orthogonalEdgeStyle;rounded=0;orthogonalLoop=1;jettySize=auto;html=1;" edge="1" parent="1" source="iyl_RyE-g6Nbr4z0nLbD-1" target="iyl_RyE-g6Nbr4z0nLbD-2">
          <mxGeometry relative="1" as="geometry" />
        </mxCell>
        <mxCell id="iyl_RyE-g6Nbr4z0nLbD-1" value="START" style="strokeWidth=2;html=1;shape=mxgraph.flowchart.start_1;whiteSpace=wrap;" vertex="1" parent="1">
          <mxGeometry x="60" y="50" width="100" height="60" as="geometry" />
        </mxCell>
        <mxCell id="iyl_RyE-g6Nbr4z0nLbD-5" value="" style="edgeStyle=orthogonalEdgeStyle;rounded=0;orthogonalLoop=1;jettySize=auto;html=1;" edge="1" parent="1" source="iyl_RyE-g6Nbr4z0nLbD-2" target="iyl_RyE-g6Nbr4z0nLbD-4">
          <mxGeometry relative="1" as="geometry" />
        </mxCell>
        <mxCell id="iyl_RyE-g6Nbr4z0nLbD-2" value="Input Customer&#39;s&lt;div&gt;Last Name&lt;/div&gt;" style="shape=parallelogram;perimeter=parallelogramPerimeter;whiteSpace=wrap;html=1;fixedSize=1;strokeWidth=2;" vertex="1" parent="1">
          <mxGeometry x="50" y="190" width="120" height="60" as="geometry" />
        </mxCell>
        <mxCell id="iyl_RyE-g6Nbr4z0nLbD-7" value="" style="edgeStyle=orthogonalEdgeStyle;rounded=0;orthogonalLoop=1;jettySize=auto;html=1;" edge="1" parent="1" source="iyl_RyE-g6Nbr4z0nLbD-4" target="iyl_RyE-g6Nbr4z0nLbD-6">
          <mxGeometry relative="1" as="geometry" />
        </mxCell>
        <mxCell id="iyl_RyE-g6Nbr4z0nLbD-4" value="Input Number of&lt;div&gt;Bathrooms&lt;/div&gt;" style="shape=parallelogram;perimeter=parallelogramPerimeter;whiteSpace=wrap;html=1;fixedSize=1;strokeWidth=2;" vertex="1" parent="1">
          <mxGeometry x="50" y="330" width="120" height="60" as="geometry" />
        </mxCell>
        <mxCell id="iyl_RyE-g6Nbr4z0nLbD-9" value="" style="edgeStyle=orthogonalEdgeStyle;rounded=0;orthogonalLoop=1;jettySize=auto;html=1;" edge="1" parent="1" source="iyl_RyE-g6Nbr4z0nLbD-6" target="iyl_RyE-g6Nbr4z0nLbD-8">
          <mxGeometry relative="1" as="geometry" />
        </mxCell>
        <mxCell id="iyl_RyE-g6Nbr4z0nLbD-6" value="Input Number of&amp;nbsp;&lt;div&gt;Other Rooms&lt;/div&gt;" style="shape=parallelogram;perimeter=parallelogramPerimeter;whiteSpace=wrap;html=1;fixedSize=1;strokeWidth=2;" vertex="1" parent="1">
          <mxGeometry x="50" y="470" width="120" height="60" as="geometry" />
        </mxCell>
        <mxCell id="iyl_RyE-g6Nbr4z0nLbD-11" value="" style="edgeStyle=orthogonalEdgeStyle;rounded=0;orthogonalLoop=1;jettySize=auto;html=1;" edge="1" parent="1" source="iyl_RyE-g6Nbr4z0nLbD-8" target="iyl_RyE-g6Nbr4z0nLbD-10">
          <mxGeometry relative="1" as="geometry" />
        </mxCell>
        <mxCell id="iyl_RyE-g6Nbr4z0nLbD-8" value="Calculate Other Room Charge = num_other_rooms * OTHER_ROOM_RATE" style="whiteSpace=wrap;html=1;strokeWidth=2;" vertex="1" parent="1">
          <mxGeometry x="50" y="610" width="130" height="60" as="geometry" />
        </mxCell>
        <mxCell id="iyl_RyE-g6Nbr4z0nLbD-13" value="" style="edgeStyle=orthogonalEdgeStyle;rounded=0;orthogonalLoop=1;jettySize=auto;html=1;" edge="1" parent="1" source="iyl_RyE-g6Nbr4z0nLbD-10" target="iyl_RyE-g6Nbr4z0nLbD-12">
          <mxGeometry relative="1" as="geometry" />
        </mxCell>
        <mxCell id="iyl_RyE-g6Nbr4z0nLbD-10" value="Calculate Total Charge = BASE_CHARGE + BATHROOM_CHARGE + OTHER_ROOM_CHARGE" style="whiteSpace=wrap;html=1;strokeWidth=2;" vertex="1" parent="1">
          <mxGeometry x="265" y="610" width="155" height="60" as="geometry" />
        </mxCell>
        <mxCell id="iyl_RyE-g6Nbr4z0nLbD-15" value="" style="edgeStyle=orthogonalEdgeStyle;rounded=0;orthogonalLoop=1;jettySize=auto;html=1;" edge="1" parent="1" source="iyl_RyE-g6Nbr4z0nLbD-12" target="iyl_RyE-g6Nbr4z0nLbD-14">
          <mxGeometry relative="1" as="geometry" />
        </mxCell>
        <mxCell id="iyl_RyE-g6Nbr4z0nLbD-12" value="Display Customers Name" style="shape=parallelogram;perimeter=parallelogramPerimeter;whiteSpace=wrap;html=1;fixedSize=1;strokeWidth=2;" vertex="1" parent="1">
          <mxGeometry x="282.5" y="470" width="120" height="60" as="geometry" />
        </mxCell>
        <mxCell id="iyl_RyE-g6Nbr4z0nLbD-17" value="" style="edgeStyle=orthogonalEdgeStyle;rounded=0;orthogonalLoop=1;jettySize=auto;html=1;" edge="1" parent="1" source="iyl_RyE-g6Nbr4z0nLbD-14" target="iyl_RyE-g6Nbr4z0nLbD-16">
          <mxGeometry relative="1" as="geometry" />
        </mxCell>
        <mxCell id="iyl_RyE-g6Nbr4z0nLbD-14" value="Display Number of Bathrooms and cost" style="shape=parallelogram;perimeter=parallelogramPerimeter;whiteSpace=wrap;html=1;fixedSize=1;strokeWidth=2;" vertex="1" parent="1">
          <mxGeometry x="282.5" y="330" width="137.5" height="60" as="geometry" />
        </mxCell>
        <mxCell id="iyl_RyE-g6Nbr4z0nLbD-19" value="" style="edgeStyle=orthogonalEdgeStyle;rounded=0;orthogonalLoop=1;jettySize=auto;html=1;" edge="1" parent="1" source="iyl_RyE-g6Nbr4z0nLbD-16" target="iyl_RyE-g6Nbr4z0nLbD-18">
          <mxGeometry relative="1" as="geometry" />
        </mxCell>
        <mxCell id="iyl_RyE-g6Nbr4z0nLbD-16" value="Display Number of other rooms&lt;div&gt;and cost&lt;/div&gt;" style="shape=parallelogram;perimeter=parallelogramPerimeter;whiteSpace=wrap;html=1;fixedSize=1;strokeWidth=2;" vertex="1" parent="1">
          <mxGeometry x="280" y="190" width="131.25" height="60" as="geometry" />
        </mxCell>
        <mxCell id="iyl_RyE-g6Nbr4z0nLbD-22" value="" style="edgeStyle=orthogonalEdgeStyle;rounded=0;orthogonalLoop=1;jettySize=auto;html=1;" edge="1" parent="1" source="iyl_RyE-g6Nbr4z0nLbD-18" target="iyl_RyE-g6Nbr4z0nLbD-21">
          <mxGeometry relative="1" as="geometry" />
        </mxCell>
        <mxCell id="iyl_RyE-g6Nbr4z0nLbD-18" value="Display total&amp;nbsp;&lt;div&gt;charge&lt;/div&gt;" style="shape=parallelogram;perimeter=parallelogramPerimeter;whiteSpace=wrap;html=1;fixedSize=1;strokeWidth=2;" vertex="1" parent="1">
          <mxGeometry x="496.875" y="190" width="120" height="60" as="geometry" />
        </mxCell>
        <mxCell id="iyl_RyE-g6Nbr4z0nLbD-21" value="END" style="strokeWidth=2;html=1;shape=mxgraph.flowchart.start_1;whiteSpace=wrap;" vertex="1" parent="1">
          <mxGeometry x="506.88" y="300" width="100" height="60" as="geometry" />
        </mxCell>
      </root>
    </mxGraphModel>
  </diagram>
</mxfile>
